<?xml version="1.0" encoding="UTF-8" standalone="no"?>
<svg
   xmlns:dc="http://purl.org/dc/elements/1.1/"
   xmlns:cc="http://creativecommons.org/ns#"
   xmlns:rdf="http://www.w3.org/1999/02/22-rdf-syntax-ns#"
   xmlns:svg="http://www.w3.org/2000/svg"
   xmlns="http://www.w3.org/2000/svg"
   xmlns:sodipodi="http://sodipodi.sourceforge.net/DTD/sodipodi-0.dtd"
   xmlns:inkscape="http://www.inkscape.org/namespaces/inkscape"
   width="140.98512mm"
   height="31.183035mm"
   viewBox="0 0 140.98512 31.183035"
   version="1.1"
   id="svg8"
   inkscape:version="1.0.2-2 (e86c870879, 2021-01-15)"
   sodipodi:docname="downArrow.svg">
  <defs
     id="defs2">
    <inkscape:path-effect
       effect="taper_stroke"
       id="path-effect892"
       is_visible="true"
       lpeversion="1"
       stroke_width="2.1"
       attach_start="0.8"
       end_offset="0.03"
       smoothing="0.4"
       jointype="extrapolated"
       miter_limit="100" />
    <inkscape:path-effect
       effect="taper_stroke"
       id="path-effect869"
       is_visible="true"
       lpeversion="1"
       stroke_width="2.1"
       attach_start="0.8"
       end_offset="0.03"
       smoothing="0.4"
       jointype="extrapolated"
       miter_limit="100" />
  </defs>
  <sodipodi:namedview
     id="base"
     pagecolor="#ffffff"
     bordercolor="#666666"
     borderopacity="1.0"
     inkscape:pageopacity="0"
     inkscape:pageshadow="2"
     inkscape:zoom="1.979899"
     inkscape:cx="-45.726638"
     inkscape:cy="225.89539"
     inkscape:document-units="mm"
     inkscape:current-layer="layer1"
     inkscape:document-rotation="0"
     showgrid="false"
     fit-margin-top="0"
     fit-margin-left="0"
     fit-margin-right="0"
     fit-margin-bottom="0"
     inkscape:window-width="3840"
     inkscape:window-height="2066"
     inkscape:window-x="5749"
     inkscape:window-y="-11"
     inkscape:window-maximized="1" />
  <metadata
     id="metadata5">
    <rdf:RDF>
      <cc:Work
         rdf:about="">
        <dc:format>image/svg+xml</dc:format>
        <dc:type
           rdf:resource="http://purl.org/dc/dcmitype/StillImage" />
        <dc:title />
      </cc:Work>
    </rdf:RDF>
  </metadata>
  <g
     inkscape:label="Layer 1"
     inkscape:groupmode="layer"
     id="layer1"
     transform="translate(-26.080357,-36.285714)">
    <path
       style="fill:#6e6e6e;fill-opacity:1;fill-rule:nonzero;stroke:none;stroke-width:0.264583px;stroke-linecap:butt;stroke-linejoin:miter;stroke-opacity:1"
       d="M 90.998253,57.120687 C 88.683605,54.286892 85.845199,51.618448 82.497385,49.401139 78.695947,46.889643 74.489871,45.045393 70.11618,43.594499 59.279225,39.99865 48.152418,38.471858 39.862,37.565423 31.557994,36.657502 26.080357,36.285714 26.080357,36.285714 c 0,0 5.453612,0.649192 13.699682,1.906276 8.231345,1.254838 19.231064,3.195323 29.773542,7.022796 4.237256,1.539032 8.255299,3.402673 11.824388,5.850143 3.134517,2.144059 5.798685,4.697848 7.994013,7.384382 1.933023,2.366071 3.656783,4.994459 5.375697,7.943658 0.365037,0.626293 1.825236,1.07578 1.825236,1.07578 0,0 0.368794,-1.481756 -0.01091,-2.133243 -1.752063,-3.006075 -3.538606,-5.735991 -5.56375,-8.214819 z"
       id="path833"
       sodipodi:nodetypes="cc"
       inkscape:path-effect="#path-effect869"
       inkscape:original-d="m 26.080357,36.285714 c 50.648809,5.480655 60.287202,13.040178 70.492558,31.183035" />
    <path
       style="fill:#6e6e6e;fill-opacity:1;fill-rule:nonzero;stroke:none;stroke-width:0.264583px;stroke-linecap:butt;stroke-linejoin:miter;stroke-opacity:1"
       d="m 103.77385,58.449311 c 2.19533,-2.686534 4.8595,-5.240323 7.99401,-7.384382 3.56909,-2.44747 7.58714,-4.311111 11.82439,-5.850143 10.54248,-3.827473 21.5422,-5.767958 29.77355,-7.022796 8.24607,-1.257084 13.69968,-1.906276 13.69968,-1.906276 0,0 -5.47764,0.371788 -13.78164,1.279709 -8.29042,0.906435 -19.41723,2.433227 -30.25419,6.029076 -4.37369,1.450894 -8.57976,3.295144 -12.3812,5.80664 -3.34782,2.217309 -6.18622,4.885753 -8.50087,7.719548 -2.02515,2.478828 -3.81169,5.208744 -5.563753,8.214819 -0.379706,0.651487 -0.01091,2.133243 -0.01091,2.133243 0,0 1.460199,-0.449487 1.825236,-1.07578 1.718909,-2.949199 3.442669,-5.577587 5.375699,-7.943658 z"
       id="path833-3"
       sodipodi:nodetypes="cc"
       inkscape:path-effect="#path-effect892"
       inkscape:original-d="M 167.06548,36.285714 C 116.41667,41.766369 106.77827,49.325892 96.572915,67.468749" />
  </g>
</svg>
