<?xml version="1.0" encoding="UTF-8" standalone="no"?>
<svg
   xmlns:dc="http://purl.org/dc/elements/1.1/"
   xmlns:cc="http://creativecommons.org/ns#"
   xmlns:rdf="http://www.w3.org/1999/02/22-rdf-syntax-ns#"
   xmlns:svg="http://www.w3.org/2000/svg"
   xmlns="http://www.w3.org/2000/svg"
   xmlns:sodipodi="http://sodipodi.sourceforge.net/DTD/sodipodi-0.dtd"
   xmlns:inkscape="http://www.inkscape.org/namespaces/inkscape"
   width="143.32mm"
   height="52.833mm"
   version="1.1"
   viewBox="0 0 143.32 52.833"
   id="svg28"
   sodipodi:docname="logoWhiteOpti.svg"
   inkscape:version="1.0.2-2 (e86c870879, 2021-01-15)">
  <metadata
     id="metadata34">
    <rdf:RDF>
      <cc:Work
         rdf:about="">
        <dc:format>image/svg+xml</dc:format>
        <dc:type
           rdf:resource="http://purl.org/dc/dcmitype/StillImage" />
      </cc:Work>
    </rdf:RDF>
  </metadata>
  <defs
     id="defs32" />
  <sodipodi:namedview
     pagecolor="#ffffff"
     bordercolor="#666666"
     borderopacity="1"
     objecttolerance="10"
     gridtolerance="10"
     guidetolerance="10"
     inkscape:pageopacity="0"
     inkscape:pageshadow="2"
     inkscape:window-width="1606"
     inkscape:window-height="997"
     id="namedview30"
     showgrid="false"
     inkscape:zoom="2.6786938"
     inkscape:cx="392.54206"
     inkscape:cy="99.84189"
     inkscape:window-x="1124"
     inkscape:window-y="435"
     inkscape:window-maximized="0"
     inkscape:current-layer="svg28"
     inkscape:document-rotation="0" />
  <path
     d="m 69.679002,45.449 c 3.931601,1.198 7.875703,2.3151 11.893001,3.1646 3.139601,0.67275 6.347999,1.2549 9.629099,1.0513 4.947403,-0.31637 9.729698,-0.86872 14.250008,-2.4738 3.81829,-1.3701 7.15839,-3.5801 10.02999,-5.9033 0,0 0,-10e-6 0,-10e-6 3.2569,-2.6573 5.1784,-6.5001 6.6687,-9.7317 1.8588,-3.9788 2.9026,-6.956 5.16641,-9.7373 1.91789,-2.3824 4.72339,-3.5596 6.9843,-4.0623 5.61209,-1.2442 8.98299,-1.6327 8.98299,-1.6327 0,0 -3.3295,0.22552 -9.057,1.2657 -2.33389,0.42292 -5.28019,1.5294 -7.43159,3.9914 -2.43151,2.8085 -3.64721,5.8543 -5.58081,9.7231 -1.59429,3.1513 -3.538,6.8215 -6.5731,9.1167 v 0 c -2.8609,2.189 -6.1149,4.2454 -9.7186,5.4434 -4.3134,1.4514 -8.931001,1.8872 -13.830997,2.1517 -2.977202,0.16553 -6.000201,-0.43691 -9.109404,-1.1095 -3.927498,-0.861 -7.8103,-1.9801 -11.720999,-3.1705 -3.4156,-1.0402 -6.8523,-2.1581 -10.098,-3.218 -3.654601,-1.1935 -7.170701,-2.3215 -10.746001,-3.2789 -3.9234,-1.0564 -7.7914,-0.765 -10.974,0.34682 -3.931801,1.3871 -6.349101,4.0999 -7.678501,6.117 -1.3342,2.0244 -1.7056,3.3865 -1.7056,3.3865 0,0 0.52807,-1.312 2.0145,-3.1616 1.4414,-1.7935 4.0199,-4.2177 7.721201,-5.2182 3.033699,-0.83296 6.6035,-0.87291 10.132,0.22442 3.4337,1.067 7.0049,2.3067 10.615,3.4852 3.247201,1.0603 6.702501,2.1842 10.136001,3.23 z"
     style="mix-blend-mode:normal;fill:#e6e6e6;stroke-width:1;paint-order:normal"
     id="path2" />
  <path
     d="m 67.221,38.769 c 8.8906,3.2609 17.742,6.2606 26.97,5.8799 7.045,-0.33163 13.447,-3.473 18.619,-6.7042 h 0 c 3.2816,-2.0515 5.8965,-4.9761 8.0818,-7.4808 2.8301,-3.2282 4.9878,-5.715 7.7976,-7.78 v -10e-6 c 7.8657,-5.8126 14.634,-6.5582 14.634,-6.5582 0,0 -6.7616,0.41946 -15.009,6.0286 h -1e-5 c -2.9468,2.0151 -5.2658,4.49 -8.1803,7.6253 -2.2607,2.4203 -4.8918,5.2088 -8.0128,7.0245 0,0 0,10e-6 0,10e-6 -5.1771,3.0196 -11.432,5.937 -17.992001,6.0895 -8.7967,0.2605 -17.324,-2.7858 -26.223,-6.0039 -6.5597,-2.389 -12.18,-4.7514 -15.239,-5.4167 -0.33186,-0.0722 -0.67058,-0.14216 -1.0154,-0.20967 -6.7067,-1.3257 -13.075,-1.3812 -18.798,0.10635 h -2e-6 c -3.1044,0.79414 -5.5739,2.0575 -7.3327,3.8283 -3.5907,3.6576 -2.5762,7.2196 -2.5762,7.2196 0,0 -0.51995,-3.6101 3.0907,-6.6682 1.7717,-1.5227 4.1186,-2.4565 7.1204,-3.0547 h 2e-6 c 5.5858,-1.0909 11.571,-0.73647 18.112,0.53142 0.33147,0.0649 0.65657,0.13207 0.97461,0.20124 2.8196,0.61327 8.3938,2.9432 14.979,5.3416 z"
     style="mix-blend-mode:normal;fill:#e6e6e6;paint-order:normal"
     id="path4" />
  <path
     d="m 103.12535,22.380293 c 0.001,0.466322 0,-0.0087 0.005,2.107856 -1.50435,-0.0091 -3.08898,-0.388483 -4.439392,-1.095017 -0.0011,-5.29e-4 -0.0021,-0.001 -0.0031,-0.0016 a 3.4141403,2.0848904 0 0 0 -0.335382,0.901212 3.4141403,2.0848904 0 0 0 3.414144,2.084599 3.4141403,2.0848904 0 0 0 3.41414,-2.084599 3.4141403,2.0848904 0 0 0 -2.05565,-1.912516 z"
     stroke-width="0"
     style="fill:#e6e6e6;paint-order:normal"
     id="path6" />
  <path
     d="m 7.056,12.735 10.583,11.677 v 0.21166 h -3.9158 l -10.478,-11.677 v 11.677 H -4e-4 v -22.86 h 3.2456 v 10.901 l 10.266,-10.901 h 3.7042 v 0.21167 z"
     style="font-variant-ligatures:normal;font-variant-caps:normal;font-variant-numeric:normal;font-variant-east-asian:normal;fill:#e6e6e6"
     id="path8" />
  <path
     d="m 21.9429,6.032 q -0.56444,0 -1.0583,-0.28222 -0.49389,-0.3175 -0.81139,-0.81139 -0.28222,-0.49389 -0.28222,-1.0583 0,-0.59972 0.28222,-1.0936 0.3175,-0.49389 0.81139,-0.77611 0.49389,-0.3175 1.0583,-0.3175 0.59972,0 1.0936,0.3175 0.49389,0.28222 0.77611,0.77611 0.3175,0.49389 0.3175,1.0936 0,0.56444 -0.3175,1.0583 Q 23.53039,5.43228 23.0365,5.74978 22.54261,6.032 21.9429,6.032 Z M 20.4612,24.623 V 9.171 l 3.0339,-0.35278 v 15.804 z"
     style="font-variant-ligatures:normal;font-variant-caps:normal;font-variant-numeric:normal;font-variant-east-asian:normal;fill:#e6e6e6"
     id="path10" />
  <path
     d="m 37.112,8.749 q 4.7272,0 4.7272,4.9036 v 10.971 h -3.0339 v -9.8425 q 0,-1.3053 -0.28222,-2.0108 -0.24694,-0.74083 -0.88194,-1.0583 -0.59972,-0.3175 -1.6581,-0.3175 -1.05838,0 -2.2578,0.3175 -1.1994,0.28222 -2.2578,0.77611 v 12.136 h -3.0339 v -15.452 l 3.0339,-0.35278 v 1.4817 q 2.9633,-1.5522 5.6444,-1.5522 z"
     style="font-variant-ligatures:normal;font-variant-caps:normal;font-variant-numeric:normal;font-variant-east-asian:normal;fill:#e6e6e6"
     id="path12" />
  <path
     d="m 59.725,0 v 24.624 h -2.7517 l -0.14111,-1.1289 q -1.27,0.74084 -2.5753,1.1289 -1.3053,0.42334 -2.4342,0.42334 -2.0461,0 -3.4925,-0.91723 -1.4464,-0.9525 -2.2225,-2.6811 -0.74083,-1.7639 -0.74083,-4.1275 0,-2.6811 1.0231,-4.6214 1.0583,-1.9403 2.8575,-2.9281 1.7992,-1.0231 4.0922,-1.0231 1.5169,0 3.3514,0.45861 V 0.35282 Z M 48.612,17.251 q 0,2.6458 1.0583,3.9158 1.0583,1.27 2.9986,1.27 2.0461,0 4.0217,-1.1642 V 11.677 q -1.5875,-0.52917 -3.1044,-0.52917 -1.4464,0 -2.5753,0.67028 -1.0936,0.635 -1.7639,2.0108 -0.635,1.3758 -0.635,3.4219 z"
     style="font-variant-ligatures:normal;font-variant-caps:normal;font-variant-numeric:normal;font-variant-east-asian:normal;fill:#e6e6e6"
     id="path14" />
  <path
     d="m 72.214,8.749 q 0.59972,0 1.0936,0.07056 0.49389,0.07055 1.0583,0.21167 l -0.56444,3.1397 q -1.1994,-0.42333 -2.1872,-0.42333 -1.1289,0 -2.0814,0.49389 -0.9525,0.49389 -1.8344,1.8697 v 10.513 h -3.0339 v -15.487 l 3.0339,-0.3175 v 2.2225 q 0.88194,-1.1289 2.0461,-1.6933 1.1642,-0.59972 2.4694,-0.59972 z"
     style="font-variant-ligatures:normal;font-variant-caps:normal;font-variant-numeric:normal;font-variant-east-asian:normal;fill:#e6e6e6"
     id="path16" />
  <path
     d="m 89.253,17.427 h -10.76 q 0.03528,2.6458 1.27,3.8453 1.27,1.1994 3.2456,1.1994 1.4111,0 2.4342,-0.35278 1.0583,-0.35278 2.3283,-1.0936 l 1.1642,2.1519 q -2.8928,1.8697 -6.0678,1.8697 -3.3867,0 -5.4328,-1.8697 -2.0108,-1.905 -2.0108,-5.9972 0,-2.3283 0.84667,-4.2333 0.84667,-1.905 2.5047,-3.0339 1.6933,-1.1642 4.1275,-1.1642 2.0461,0 3.4925,0.84667 1.4464,0.81139 2.1872,2.2578 0.74083,1.4464 0.74083,3.3161 z m -6.35,-6.3147 q -1.8344,0 -2.8928,1.0936 -1.0231,1.0936 -1.3406,2.9986 h 7.6906 v -0.14111 q 0,-1.9756 -0.91722,-2.9633 -0.88194,-0.98778 -2.54,-0.98778 z"
     style="font-variant-ligatures:normal;font-variant-caps:normal;font-variant-numeric:normal;font-variant-east-asian:normal;fill:#e6e6e6"
     id="path18" />
  <path
     d="m 106.1495,0 -3.03394,0.35294972 V 9.2076486 c -1.22294,-0.3057487 -2.3399,-0.4588876 -3.351173,-0.4588876 -1.52869,0 -2.892653,0.3411495 -4.092259,1.0231838 -1.199421,0.6585132 -2.15212,1.6344432 -2.857729,2.9278422 -0.682034,1.293505 -1.022654,2.833916 -1.022654,4.621419 0,1.575733 0.246631,2.95139 0.740506,4.127448 0.517413,1.152378 1.258343,2.045944 2.222578,2.680989 0.964235,0.611471 2.128202,0.917246 3.492192,0.917246 0.752571,0 1.564276,-0.141003 2.434449,-0.423222 0.2798,-0.08318 0.55771,-0.182918 0.83507,-0.29043 -0.98548,-0.171453 -1.957838,-0.489658 -2.832327,-0.947222 -0.964474,-0.504607 -1.764908,-1.270884 -2.487687,-2.111481 -0.03325,-0.03669 -0.06925,-0.06956 -0.101284,-0.108002 -0.02312,-0.02776 -0.04274,-0.06014 -0.06511,-0.08888 -0.0322,-0.03853 -0.06524,-0.07648 -0.09715,-0.115238 l 0.01188,-10e-4 c -0.602766,-0.846736 -0.907933,-2.080472 -0.907933,-3.710735 0,-1.364069 0.211767,-2.50425 0.635098,-3.421548 0.446849,-0.91722 1.03464,-1.587904 1.76369,-2.011232 0.752571,-0.446849 1.611266,-0.670234 2.575523,-0.670234 1.01128,0 2.04584,0.176388 3.10406,0.52916 v 9.595788 c -1.4e-4,7.7e-5 -2.7e-4,-7.8e-5 -5.3e-4,0 5.3e-4,0.201371 0.003,0.963759 0.006,2.296475 0.045,-0.02556 0.0904,-0.04767 0.13539,-0.0739 l 0.14107,1.128593 h 2.75163 z"
     style="font-variant-ligatures:normal;font-variant-caps:normal;font-variant-numeric:normal;font-variant-east-asian:normal;fill:#e6e6e6;stroke-width:0.26458;stroke:none;stroke-opacity:1;fill-opacity:1"
     id="path20" />
  <path
     d="m 94.307,23.799 c 4.6088,3.5088 10.284,5.0496 15.632,5.6084 6.4801,0.71111 12.421,-0.10182 17.325,-2.3832 2.8757,-1.3642 5.0992,-3.8584 6.705,-5.5959 1.0886,-1.1734 2.1612,-2.0736 3.2469,-2.757 3.3233,-2.0968 5.7506,-2.4229 5.7506,-2.4229 0,0 -2.4374,0.13395 -5.9651,2.0571 -1.1605,0.63447 -2.332,1.499 -3.5201,2.6437 -1.7105,1.6388 -4.0175,3.9714 -6.6732,5.0367 -4.7807,1.9713 -10.437,2.4785 -16.656,1.6588 -5.133,-0.70448 -10.465,-2.215 -14.627,-5.4327 -7e-5,-5e-5 -1.39e-4,-1.1e-4 -2.09e-4,-1.6e-4 l -1.2171,1.587 c 7.8e-5,6e-5 1.56e-4,1.2e-4 2.33e-4,1.8e-4 z"
     id="path22"
     style="fill:#e6e6e6" />
  <path
     d="m 106.128,24.639 c 0.0891,-0.12083 -0.63864,-0.82119 -0.63864,-0.82119 0,0 -0.89271,-0.47197 -0.97081,-0.3661 -4.8399,6.5608 -10.266,7.5786 -17.481,7.8363 -7.1534,0.25548 -21.783,-4.8962 -42.506,-4.6969 -10.353,0.0995 -16.941,0.86563 -21.439,2.4018 -3.7784,1.3004 -6.959,3.886 -9.0342,7.1523 -1.5036,2.4399 -1.5566,5.3771 -0.86303,7.8327 0.93598,3.4041 3.3405,6.0128 6.037,7.4374 3.5227,1.8305 7.512,1.5347 10.28,1.0393 h 2e-6 c 6.0106,-1.0504 9.0094,-3.3661 9.0094,-3.3661 0,0 -3.1873,2.0258 -9.1068,2.6868 h -2e-6 c -2.7306,0.29322 -6.5728,0.3513 -9.5685,-1.4594 -2.3475,-1.3932 -4.3762,-3.8151 -5.0505,-6.7449 -0.47992,-2.1597 -0.3981,-4.6382 0.82888,-6.4101 1.9074,-2.8764 4.78,-5.1464 8.1141,-6.2753 4.2171,-1.4404 10.527,-2.1956 20.812,-2.2946 20.552,-0.19761 34.895,4.9695 42.558,4.6958 7.4426,-0.2658 13.621,-1.3308 19.019,-8.6478 z"
     id="path24"
     style="fill:#e6e6e6" />
</svg>
