<?xml version="1.0" encoding="UTF-8" standalone="no"?>
<svg
   xmlns:osb="http://www.openswatchbook.org/uri/2009/osb"
   xmlns:dc="http://purl.org/dc/elements/1.1/"
   xmlns:cc="http://creativecommons.org/ns#"
   xmlns:rdf="http://www.w3.org/1999/02/22-rdf-syntax-ns#"
   xmlns:svg="http://www.w3.org/2000/svg"
   xmlns="http://www.w3.org/2000/svg"
   xmlns:sodipodi="http://sodipodi.sourceforge.net/DTD/sodipodi-0.dtd"
   xmlns:inkscape="http://www.inkscape.org/namespaces/inkscape"
   width="143.32336mm"
   height="52.832592mm"
   viewBox="0 0 143.32337 52.832592"
   version="1.1"
   id="svg8"
   inkscape:version="1.0.2-2 (e86c870879, 2021-01-15)"
   sodipodi:docname="logoWhite.svg">
  <defs
     id="defs2">
    <inkscape:path-effect
       effect="taper_stroke"
       id="path-effect1002"
       is_visible="true"
       lpeversion="1"
       stroke_width="2"
       attach_start="0.010714835"
       end_offset="2.5"
       smoothing="0.5"
       jointype="extrapolated"
       miter_limit="100" />
    <inkscape:path-effect
       effect="taper_stroke"
       id="path-effect1000"
       is_visible="true"
       lpeversion="1"
       stroke_width="2"
       attach_start="2"
       end_offset="0.011838031"
       smoothing="0.5"
       jointype="extrapolated"
       miter_limit="100" />
    <inkscape:path-effect
       effect="taper_stroke"
       id="path-effect998"
       is_visible="true"
       lpeversion="1"
       stroke_width="2"
       attach_start="3.562351"
       end_offset="0.97023526"
       smoothing="0.5"
       jointype="extrapolated"
       miter_limit="100" />
    <inkscape:path-effect
       effect="taper_stroke"
       id="path-effect996"
       is_visible="true"
       lpeversion="1"
       stroke_width="2"
       attach_start="3.5169948"
       end_offset="1.2666229"
       smoothing="0.5"
       jointype="extrapolated"
       miter_limit="100" />
    <inkscape:path-effect
       effect="taper_stroke"
       id="path-effect101"
       is_visible="true"
       lpeversion="1"
       stroke_width="2"
       attach_start="0.010714835"
       end_offset="2.5"
       smoothing="0.5"
       jointype="extrapolated"
       miter_limit="100" />
    <inkscape:path-effect
       effect="taper_stroke"
       id="path-effect99"
       is_visible="true"
       lpeversion="1"
       stroke_width="1.3"
       attach_start="1.5"
       end_offset="0.0098229018"
       smoothing="0.5"
       jointype="extrapolated"
       miter_limit="100" />
    <inkscape:path-effect
       effect="taper_stroke"
       id="path-effect97"
       is_visible="true"
       lpeversion="1"
       stroke_width="2"
       attach_start="3.562351"
       end_offset="0.97023526"
       smoothing="0.5"
       jointype="extrapolated"
       miter_limit="100" />
    <inkscape:path-effect
       effect="taper_stroke"
       id="path-effect95"
       is_visible="true"
       lpeversion="1"
       stroke_width="2"
       attach_start="3.5169948"
       end_offset="1.2666229"
       smoothing="0.5"
       jointype="extrapolated"
       miter_limit="100" />
    <inkscape:path-effect
       effect="taper_stroke"
       id="path-effect909"
       is_visible="true"
       lpeversion="1"
       stroke_width="2"
       attach_start="0.010714835"
       end_offset="2.5"
       smoothing="0.5"
       jointype="extrapolated"
       miter_limit="100" />
    <inkscape:path-effect
       effect="taper_stroke"
       id="path-effect905"
       is_visible="true"
       lpeversion="1"
       stroke_width="1"
       attach_start="1.99999"
       end_offset="0.0098229018"
       smoothing="0.5"
       jointype="extrapolated"
       miter_limit="100" />
    <inkscape:path-effect
       effect="taper_stroke"
       id="path-effect4952"
       is_visible="true"
       lpeversion="1"
       stroke_width="2"
       attach_start="4.99999"
       end_offset="0.7"
       smoothing="0.5"
       jointype="extrapolated"
       miter_limit="100" />
    <inkscape:path-effect
       effect="taper_stroke"
       id="path-effect4950"
       is_visible="true"
       lpeversion="1"
       stroke_width="2"
       attach_start="3.5"
       end_offset="0.5"
       smoothing="0.5"
       jointype="extrapolated"
       miter_limit="100" />
    <inkscape:path-effect
       effect="taper_stroke"
       id="path-effect4948"
       is_visible="true"
       lpeversion="1"
       stroke_width="2"
       attach_start="3.5"
       end_offset="0.5"
       smoothing="0.5"
       jointype="extrapolated"
       miter_limit="100" />
    <inkscape:path-effect
       effect="taper_stroke"
       id="path-effect4888"
       is_visible="true"
       lpeversion="1"
       stroke_width="1.9861059"
       attach_start="0.5"
       end_offset="0.7"
       smoothing="0.5"
       jointype="extrapolated"
       miter_limit="100" />
    <inkscape:path-effect
       effect="taper_stroke"
       id="path-effect4886"
       is_visible="true"
       lpeversion="1"
       stroke_width="1.9861059"
       attach_start="0.53375244"
       end_offset="0.7"
       smoothing="0.5"
       jointype="extrapolated"
       miter_limit="100" />
    <inkscape:path-effect
       effect="taper_stroke"
       id="path-effect4884"
       is_visible="true"
       lpeversion="1"
       stroke_width="1.9861059"
       attach_start="0.5"
       end_offset="0.82424131"
       smoothing="0.5"
       jointype="extrapolated"
       miter_limit="100" />
    <inkscape:path-effect
       effect="taper_stroke"
       id="path-effect4824"
       is_visible="true"
       lpeversion="1"
       stroke_width="1.9861059"
       attach_start="0.5"
       end_offset="0.7"
       smoothing="0.5"
       jointype="extrapolated"
       miter_limit="100" />
    <inkscape:path-effect
       effect="taper_stroke"
       id="path-effect4822"
       is_visible="true"
       lpeversion="1"
       stroke_width="1.9861059"
       attach_start="0.53375244"
       end_offset="0.7"
       smoothing="0.5"
       jointype="extrapolated"
       miter_limit="100" />
    <inkscape:path-effect
       effect="taper_stroke"
       id="path-effect4820"
       is_visible="true"
       lpeversion="1"
       stroke_width="1.9861059"
       attach_start="0.5"
       end_offset="0.82424131"
       smoothing="0.5"
       jointype="extrapolated"
       miter_limit="100" />
    <inkscape:path-effect
       effect="taper_stroke"
       id="path-effect4660"
       is_visible="true"
       lpeversion="1"
       stroke_width="2.5"
       attach_start="0.5"
       end_offset="0.7"
       smoothing="0.5"
       jointype="extrapolated"
       miter_limit="100" />
    <inkscape:path-effect
       effect="taper_stroke"
       id="path-effect4658"
       is_visible="true"
       lpeversion="1"
       stroke_width="2.5"
       attach_start="0.5"
       end_offset="0.7"
       smoothing="0.5"
       jointype="extrapolated"
       miter_limit="100" />
    <inkscape:path-effect
       effect="taper_stroke"
       id="path-effect4656"
       is_visible="true"
       lpeversion="1"
       stroke_width="2.5"
       attach_start="0.5"
       end_offset="0.99999"
       smoothing="0.5"
       jointype="extrapolated"
       miter_limit="100" />
    <inkscape:path-effect
       effect="taper_stroke"
       id="path-effect4592"
       is_visible="true"
       lpeversion="1"
       stroke_width="2.5"
       attach_start="0.5"
       end_offset="0.7"
       smoothing="0.5"
       jointype="extrapolated"
       miter_limit="100" />
    <inkscape:path-effect
       effect="taper_stroke"
       id="path-effect4590"
       is_visible="true"
       lpeversion="1"
       stroke_width="2.5"
       attach_start="0.5"
       end_offset="0.7"
       smoothing="0.5"
       jointype="extrapolated"
       miter_limit="100" />
    <inkscape:path-effect
       effect="taper_stroke"
       id="path-effect4588"
       is_visible="true"
       lpeversion="1"
       stroke_width="2.5"
       attach_start="0.5"
       end_offset="0.99999"
       smoothing="0.5"
       jointype="extrapolated"
       miter_limit="100" />
    <inkscape:path-effect
       effect="taper_stroke"
       id="path-effect4522"
       is_visible="true"
       lpeversion="1"
       stroke_width="2"
       attach_start="4.99999"
       end_offset="1.4"
       smoothing="0.5"
       jointype="extrapolated"
       miter_limit="100" />
    <inkscape:path-effect
       effect="taper_stroke"
       id="path-effect4520"
       is_visible="true"
       lpeversion="1"
       stroke_width="2"
       attach_start="4.99999"
       end_offset="0.97023526"
       smoothing="0.5"
       jointype="extrapolated"
       miter_limit="100" />
    <inkscape:path-effect
       effect="taper_stroke"
       id="path-effect4518"
       is_visible="true"
       lpeversion="1"
       stroke_width="2"
       attach_start="3.99999"
       end_offset="0.99999"
       smoothing="0.5"
       jointype="extrapolated"
       miter_limit="100" />
    <inkscape:path-effect
       effect="taper_stroke"
       id="path-effect4468"
       is_visible="true"
       lpeversion="1"
       stroke_width="1.9861059"
       attach_start="0.0904339"
       end_offset="0.7"
       smoothing="0.5"
       jointype="extrapolated"
       miter_limit="100" />
    <inkscape:path-effect
       effect="taper_stroke"
       id="path-effect4463"
       is_visible="true"
       lpeversion="1"
       stroke_width="1.9861059"
       attach_start="1e-07"
       end_offset="0.7"
       smoothing="0.5"
       jointype="extrapolated"
       miter_limit="100" />
    <inkscape:path-effect
       effect="taper_stroke"
       id="path-effect4425"
       is_visible="true"
       lpeversion="1"
       stroke_width="1.9861059"
       attach_start="1e-07"
       end_offset="0.89973774"
       smoothing="0.5"
       jointype="extrapolated"
       miter_limit="100" />
    <inkscape:path-effect
       effect="bend_path"
       id="path-effect4423"
       is_visible="true"
       lpeversion="1"
       bendpath="M 24.588796,48.096011 H 163.23487"
       prop_scale="1"
       scale_y_rel="false"
       vertical="false"
       hide_knot="false" />
    <linearGradient
       id="linearGradient4403"
       osb:paint="solid">
      <stop
         style="stop-color:#000000;stop-opacity:1;"
         offset="0"
         id="stop4401" />
    </linearGradient>
    <linearGradient
       id="linearGradient4375"
       osb:paint="solid">
      <stop
         style="stop-color:#000000;stop-opacity:1;"
         offset="0"
         id="stop4373" />
    </linearGradient>
    <marker
       style="overflow:visible"
       id="Scissors"
       refX="0"
       refY="0"
       orient="auto"
       inkscape:stockid="Scissors"
       inkscape:isstock="true">
      <path
         style="fill:#000000;fill-opacity:1;stroke:#000000;stroke-opacity:1"
         d="M 9.0898857,-3.6061018 C 8.1198849,-4.7769976 6.3697607,-4.7358294 5.0623558,-4.2327734 l -8.2124046,3.0779029 c -2.3882933,-1.3067135 -4.7482873,-0.9325372 -4.7482873,-1.5687873 0,-0.4973164 0.4566662,-0.3883222 0.3883068,-1.6831941 -0.065635,-1.2432767 -1.3635771,-2.1630796 -2.5903987,-2.0816435 -1.227271,-0.00735 -2.499439,0.9331613 -2.510341,2.2300611 -0.09143,1.3063864 1.007209,2.5196896 2.306764,2.6052316 1.5223406,0.2266616 4.218258,-0.6955566 5.482945,1.57086006 -0.9422847,1.73825774 -2.6140244,1.74307674 -4.1255107,1.65607034 -1.2548743,-0.072235 -2.7620933,0.2873979 -3.3606483,1.5208605 -0.578367,1.1820862 -0.0112,2.8646022 1.316749,3.226412 1.3401912,0.4918277 3.1806689,-0.129711 3.4993722,-1.6707242 0.2456585,-1.187823 -0.5953659,-1.7459574 -0.2725074,-2.1771537 0.2436135,-0.32536 1.7907806,-0.1368452 4.5471053,-1.3748244 L 5.6763468,4.2330688 C 6.8000164,4.5467672 8.1730685,4.5362646 9.1684433,3.4313614 l -9.22008423,-3.48508362 z m -18.3078016,-1.900504 c 1.294559,0.7227998 1.1888392,2.6835702 -0.1564272,3.0632889 -1.2165179,0.423661 -2.7710269,-0.7589694 -2.3831779,-2.0774648 0.227148,-1.0818519 1.653387,-1.480632 2.5396051,-0.9858241 z m 0.056264,8.0173649 c 1.3508301,0.4988648 1.1214429,2.7844356 -0.2522207,3.091609 -0.9110594,0.3163391 -2.2135494,-0.1387976 -2.3056964,-1.2121394 -0.177609,-1.305055 1.356085,-2.4841482 2.5579171,-1.8794696 z"
         id="schere" />
    </marker>
    <marker
       style="overflow:visible"
       id="Arrow2Mend"
       refX="0"
       refY="0"
       orient="auto"
       inkscape:stockid="Arrow2Mend"
       inkscape:isstock="true">
      <path
         transform="scale(-0.6)"
         d="M 8.7185878,4.0337352 -2.2072895,0.01601326 8.7185884,-4.0017078 c -1.7454984,2.3720609 -1.7354408,5.6174519 -6e-7,8.035443 z"
         style="fill:#000000;fill-opacity:1;fill-rule:evenodd;stroke:#000000;stroke-width:0.625;stroke-linejoin:round;stroke-opacity:1"
         id="path936" />
    </marker>
    <marker
       style="overflow:visible"
       id="Arrow1Lend"
       refX="0"
       refY="0"
       orient="auto"
       inkscape:stockid="Arrow1Lend"
       inkscape:isstock="true">
      <path
         transform="matrix(-0.8,0,0,-0.8,-10,0)"
         style="fill:#000000;fill-opacity:1;fill-rule:evenodd;stroke:#000000;stroke-width:1pt;stroke-opacity:1"
         d="M 0,0 5,-5 -12.5,0 5,5 Z"
         id="path912" />
    </marker>
    <pattern
       id="EMFhbasepattern"
       patternUnits="userSpaceOnUse"
       width="6"
       height="6"
       x="0"
       y="0" />
  </defs>
  <sodipodi:namedview
     id="base"
     pagecolor="#ffffff"
     bordercolor="#666666"
     borderopacity="1.0"
     inkscape:pageopacity="0"
     inkscape:pageshadow="2"
     inkscape:zoom="2.6428847"
     inkscape:cx="58.908878"
     inkscape:cy="192.46166"
     inkscape:document-units="mm"
     inkscape:current-layer="layer2"
     inkscape:document-rotation="0"
     showgrid="false"
     inkscape:window-width="3840"
     inkscape:window-height="2066"
     inkscape:window-x="5749"
     inkscape:window-y="-11"
     inkscape:window-maximized="1"
     inkscape:object-paths="true"
     inkscape:snap-nodes="false"
     fit-margin-top="0"
     fit-margin-left="0"
     fit-margin-right="0"
     fit-margin-bottom="0"
     inkscape:pagecheckerboard="true" />
  <metadata
     id="metadata5">
    <rdf:RDF>
      <cc:Work
         rdf:about="">
        <dc:format>image/svg+xml</dc:format>
        <dc:type
           rdf:resource="http://purl.org/dc/dcmitype/StillImage" />
        <dc:title></dc:title>
      </cc:Work>
    </rdf:RDF>
  </metadata>
  <g
     inkscape:label="Layer 1"
     inkscape:groupmode="layer"
     id="layer1"
     transform="translate(23.796902,-78.480678)" />
  <g
     inkscape:groupmode="layer"
     id="layer2"
     inkscape:label="Layer 2"
     transform="translate(23.796902,-78.480678)">
    <path
       style="mix-blend-mode:normal;fill:#e6e6e6;fill-opacity:1;fill-rule:nonzero;stroke:none;stroke-width:0.289971;stroke-linecap:butt;stroke-linejoin:round;stroke-miterlimit:4;stroke-dasharray:none;stroke-dashoffset:0;stroke-opacity:1;paint-order:normal"
       d="m 45.882398,123.9322 c 3.931574,1.19798 7.875661,2.31508 11.89323,3.16464 3.139592,0.67275 6.347986,1.25493 9.62911,1.05133 4.947377,-0.31637 9.729653,-0.86872 14.250121,-2.47379 3.81828,-1.37006 7.158401,-3.5801 10.030225,-5.90332 0,0 3e-6,-1e-5 3e-6,-1e-5 3.256878,-2.65731 5.178422,-6.5001 6.668694,-9.73172 1.858799,-3.97877 2.902629,-6.95595 5.166429,-9.73732 1.91793,-2.382373 4.72335,-3.559611 6.98427,-4.062336 5.61212,-1.24419 8.98302,-1.632661 8.98302,-1.632661 0,0 -3.32948,0.225524 -9.05695,1.265694 -2.33386,0.422917 -5.28021,1.529423 -7.43162,3.991419 -2.43148,2.808504 -3.647176,5.854324 -5.58078,9.723054 -1.594347,3.15132 -3.538047,6.82154 -6.573051,9.11666 -2e-6,0 -5e-6,0 -5e-6,0 -2.860937,2.18895 -6.114883,4.24541 -9.718633,5.44337 -4.313427,1.4514 -8.931017,1.88725 -13.830799,2.1517 -2.977158,0.16553 -6.000213,-0.43691 -9.109368,-1.1095 -3.927495,-0.861 -7.810262,-1.9801 -11.721243,-3.17046 -3.415646,-1.04019 -6.852264,-2.15806 -10.0983,-3.21798 -3.654572,-1.19354 -7.170654,-2.32148 -10.745884,-3.27888 -3.923413,-1.05642 -7.791421,-0.765 -10.973839,0.34682 -3.931805,1.38713 -6.34907,4.09988 -7.678523,6.11699 -1.3342293,2.02437 -1.7056087,3.38651 -1.7056087,3.38651 0,0 0.5280658,-1.31195 2.0145377,-3.16159 1.4413687,-1.79351 4.019895,-4.21769 7.721155,-5.21823 3.033679,-0.83296 6.60354,-0.87291 10.132434,0.22442 3.433652,1.06703 7.004935,2.30666 10.614933,3.48518 3.247168,1.06028 6.70252,2.18425 10.136442,3.23001 z"
       id="path84-2-1"
       sodipodi:nodetypes="csassc"
       inkscape:path-effect="#path-effect996"
       inkscape:original-d="m 119.4875,94.607013 c -6.63124,1.58098 -12.01275,0.45814 -16.22793,5.476057 -4.256621,5.06723 -6.074831,14.49513 -11.994481,19.15438 -6.60411,5.19798 -11.75607,7.26891 -23.914889,7.98609 -9.53986,0.56269 -30.788776,-7.6213 -41.974255,-10.85399 -5.67778,-1.64092 -15.7595687,-1.19684 -20.1130487,9.00286" />
    <path
       style="mix-blend-mode:normal;fill:#e6e6e6;fill-opacity:1;fill-rule:nonzero;stroke:none;stroke-width:0.289971;stroke-linecap:butt;stroke-linejoin:round;stroke-miterlimit:4;stroke-dasharray:none;stroke-dashoffset:0;stroke-opacity:1;paint-order:normal"
       d="m 43.423924,117.25027 c 8.890632,3.26086 17.741776,6.26065 26.970287,5.87993 7.045,-0.33163 13.447096,-3.47302 18.618851,-6.70418 0,0 4e-6,0 4e-6,0 3.281589,-2.05154 5.896531,-4.97613 8.081848,-7.48081 2.83009,-3.22818 4.987836,-5.71499 7.797646,-7.77996 0,0 0,-1e-5 0,-1e-5 7.86571,-5.812627 14.6339,-6.558197 14.6339,-6.558197 0,0 -6.76162,0.419455 -15.00925,6.028567 0,0 -1e-5,0 -1e-5,0 -2.9468,2.01507 -5.265771,4.49 -8.180269,7.62533 -2.260668,2.42028 -4.891849,5.2088 -8.01277,7.02451 -10e-7,0 -5e-6,1e-5 -5e-6,1e-5 -5.177101,3.01965 -11.431562,5.93695 -17.992387,6.08946 -8.79667,0.2605 -17.323977,-2.78584 -26.223442,-6.00391 -6.559741,-2.38898 -12.18027,-4.75145 -15.238722,-5.41667 -0.331863,-0.0722 -0.670578,-0.14216 -1.015412,-0.20967 -6.706673,-1.32574 -13.074575,-1.38124 -18.7982063,0.10635 0,0 -2e-6,0 -2e-6,0 -3.1043811,0.79414 -5.5739385,2.05749 -7.3327253,3.82832 -3.5906989,3.65765 -2.57624007,7.21956 -2.57624007,7.21956 0,0 -0.51994563,-3.61007 3.09070427,-6.66823 1.7716858,-1.52272 4.1185582,-2.4565 7.1204306,-3.05469 2e-7,0 2.1e-6,0 2.1e-6,0 5.5858487,-1.09088 11.5707017,-0.73647 18.1117687,0.53142 0.331474,0.0649 0.65657,0.13207 0.974608,0.20124 2.819566,0.61327 8.393758,2.94321 14.979391,5.34163 z"
       id="path84-5-8-1"
       sodipodi:nodetypes="csaasc"
       inkscape:path-effect="#path-effect998"
       inkscape:original-d="m 119.52646,94.607043 c -4.94311,1.67598 -9.94935,2.84038 -14.82158,6.293387 -6.178731,4.37894 -9.779731,11.17635 -16.036271,14.95531 -5.53278,3.34183 -11.846,6.16703 -18.305619,6.39682 -14.39595,0.51212 -34.990472,-9.86043 -41.705922,-11.32107 -10.917262,-2.37457 -29.6857767,-2.37241 -29.51004867,9.96741" />
    <path
       id="path4538-5-5"
       style="fill:#e6e6e6;fill-opacity:1;stroke:#000000;stroke-width:0;stroke-linecap:butt;stroke-linejoin:round;stroke-miterlimit:4;stroke-dasharray:none;stroke-dashoffset:0;stroke-opacity:1;paint-order:normal"
       d="m 389.77148,84.587891 c 0.005,1.762525 0,-0.03294 0.0195,7.966797 -5.68584,-0.03428 -11.67547,-1.468323 -16.7793,-4.138672 -0.004,-0.002 -0.008,-0.0038 -0.0117,-0.0059 a 12.904378,7.879952 0 0 0 -1.26758,3.40625 12.904378,7.879952 0 0 0 12.9043,7.878906 12.904378,7.879952 0 0 0 12.9043,-7.878906 12.904378,7.879952 0 0 0 -7.76954,-7.228515 z"
       transform="matrix(0.26458333,0,0,0.26458333,-23.796902,78.480678)" />
    <path
       d="m -16.741342,91.215965 10.5833405,11.676955 v 0.21166 H -10.073837 L -20.551345,91.427631 v 11.676949 h -3.245557 V 80.244568 h 3.245557 v 10.900841 l 10.265841,-10.900841 h 3.7041689 v 0.211667 z"
       style="font-style:normal;font-variant:normal;font-weight:normal;font-stretch:normal;font-size:35.2778px;line-height:1.25;font-family:Dubai;-inkscape-font-specification:'Dubai, Normal';font-variant-ligatures:normal;font-variant-caps:normal;font-variant-numeric:normal;font-variant-east-asian:normal;fill:#e6e6e6;fill-opacity:1;stroke:none;stroke-width:0.264583"
       id="path901" />
    <path
       d="m -1.854144,84.513182 q -0.5644449,0 -1.0583341,-0.282222 -0.4938892,-0.3175 -0.8113894,-0.81139 -0.2822224,-0.493889 -0.2822224,-1.058334 0,-0.599722 0.2822224,-1.093611 0.3175002,-0.49389 0.8113894,-0.776112 0.4938892,-0.3175 1.0583341,-0.3175 0.5997226,0 1.09361182,0.3175 0.49388922,0.282222 0.77611163,0.776112 0.31750022,0.493889 0.31750022,1.093611 0,0.564445 -0.31750022,1.058334 -0.28222241,0.49389 -0.77611163,0.81139 -0.49388922,0.282222 -1.09361182,0.282222 z M -3.3358117,103.10458 V 87.652907 l 3.03389094,-0.352778 v 15.804451 z"
       style="font-style:normal;font-variant:normal;font-weight:normal;font-stretch:normal;font-size:35.2778px;line-height:1.25;font-family:Dubai;-inkscape-font-specification:'Dubai, Normal';font-variant-ligatures:normal;font-variant-caps:normal;font-variant-numeric:normal;font-variant-east-asian:normal;fill:#e6e6e6;fill-opacity:1;stroke:none;stroke-width:0.264583"
       id="path903" />
    <path
       d="m 13.315304,87.229573 q 4.727225,0 4.727225,4.903614 v 10.971393 h -3.033891 v -9.842503 q 0,-1.305279 -0.282222,-2.010835 -0.246945,-0.740833 -0.881945,-1.058334 -0.599723,-0.3175 -1.658057,-0.3175 -1.058334,0 -2.2577791,0.3175 -1.1994452,0.282223 -2.2577792,0.776112 v 12.13556 H 4.6369647 V 87.652907 l 3.033891,-0.352778 v 1.481667 q 2.9633353,-1.552223 5.6444483,-1.552223 z"
       style="font-style:normal;font-variant:normal;font-weight:normal;font-stretch:normal;font-size:35.2778px;line-height:1.25;font-family:Dubai;-inkscape-font-specification:'Dubai, Normal';font-variant-ligatures:normal;font-variant-caps:normal;font-variant-numeric:normal;font-variant-east-asian:normal;fill:#e6e6e6;fill-opacity:1;stroke:none;stroke-width:0.264583"
       id="path905" />
    <path
       d="m 35.928356,78.480678 v 24.623902 h -2.751669 l -0.141111,-1.12889 q -1.270001,0.74084 -2.575279,1.12889 -1.305279,0.42334 -2.434169,0.42334 -2.046112,0 -3.492502,-0.91723 -1.44639,-0.9525 -2.222502,-2.681108 -0.740833,-1.76389 -0.740833,-4.127503 0,-2.681113 1.023056,-4.621392 1.058334,-1.940279 2.857502,-2.928058 1.799168,-1.023056 4.092225,-1.023056 1.516945,0 3.351391,0.458611 V 78.833456 Z M 24.815848,95.731523 q 0,2.645835 1.058334,3.915836 1.058334,1.270001 2.998613,1.270001 2.046113,0 4.02167,-1.164167 v -9.595562 q -1.587501,-0.529167 -3.104447,-0.529167 -1.44639,0 -2.575279,0.670278 -1.093612,0.635 -1.76389,2.010834 -0.635001,1.375835 -0.635001,3.421947 z"
       style="font-style:normal;font-variant:normal;font-weight:normal;font-stretch:normal;font-size:35.2778px;line-height:1.25;font-family:Dubai;-inkscape-font-specification:'Dubai, Normal';font-variant-ligatures:normal;font-variant-caps:normal;font-variant-numeric:normal;font-variant-east-asian:normal;fill:#e6e6e6;fill-opacity:1;stroke:none;stroke-width:0.264583"
       id="path907" />
    <path
       d="m 48.416669,87.229573 q 0.599723,0 1.093612,0.07056 0.493889,0.07055 1.058334,0.211666 L 50.00417,90.65152 q -1.199445,-0.423334 -2.187223,-0.423334 -1.12889,0 -2.081391,0.493889 -0.9525,0.49389 -1.834445,1.869724 V 103.10458 H 40.86722 V 87.617629 l 3.033891,-0.3175 v 2.222501 q 0.881945,-1.128889 2.046112,-1.693334 1.164168,-0.599723 2.469446,-0.599723 z"
       style="font-style:normal;font-variant:normal;font-weight:normal;font-stretch:normal;font-size:35.2778px;line-height:1.25;font-family:Dubai;-inkscape-font-specification:'Dubai, Normal';font-variant-ligatures:normal;font-variant-caps:normal;font-variant-numeric:normal;font-variant-east-asian:normal;fill:#e6e6e6;fill-opacity:1;stroke:none;stroke-width:0.264583"
       id="path909" />
    <path
       d="M 65.45578,95.907912 H 54.69605 q 0.03528,2.645835 1.270001,3.845281 1.270001,1.199447 3.245558,1.199447 1.411112,0 2.434168,-0.35278 1.058334,-0.35278 2.328335,-1.093612 l 1.164168,2.151942 q -2.89278,1.86973 -6.067782,1.86973 -3.386669,0 -5.432782,-1.86973 -2.010834,-1.904997 -2.010834,-5.997222 0,-2.328335 0.846667,-4.233337 0.846667,-1.905001 2.504724,-3.03389 1.693334,-1.164168 4.127502,-1.164168 2.046113,0 3.492503,0.846667 1.44639,0.81139 2.187224,2.25778 0.740833,1.446389 0.740833,3.316113 z m -6.350005,-6.314726 q -1.834445,0 -2.892779,1.093612 -1.023056,1.093611 -1.340557,2.998613 H 62.563 V 93.5443 q 0,-1.975557 -0.917223,-2.963336 -0.881945,-0.987778 -2.540002,-0.987778 z"
       style="font-style:normal;font-variant:normal;font-weight:normal;font-stretch:normal;font-size:35.2778px;line-height:1.25;font-family:Dubai;-inkscape-font-specification:'Dubai, Normal';font-variant-ligatures:normal;font-variant-caps:normal;font-variant-numeric:normal;font-variant-east-asian:normal;fill:#e6e6e6;fill-opacity:1;stroke:none;stroke-width:0.264583"
       id="path911" />
    <path
       id="path913"
       style="font-style:normal;font-variant:normal;font-weight:normal;font-stretch:normal;font-size:35.2778px;line-height:1.25;font-family:Dubai;-inkscape-font-specification:'Dubai, Normal';font-variant-ligatures:normal;font-variant-caps:normal;font-variant-numeric:normal;font-variant-east-asian:normal;fill:#e6e6e6;fill-opacity:1;stroke:none;stroke-width:0.999999"
       d="m 401.19922,0 -11.4668,1.3339844 V 34.800781 c -4.62222,-1.155555 -8.84379,-1.734375 -12.66601,-1.734375 -5.77779,0 -10.93346,1.289409 -15.4668,3.867188 -4.53334,2.488892 -8.13411,6.177514 -10.80078,11.066406 -2.57778,4.888892 -3.86524,10.711237 -3.86524,17.466797 0,5.95556 0.93216,11.155162 2.79883,15.599609 1.95556,4.355548 4.75595,7.732813 8.40039,10.132813 3.64445,2.31113 8.04366,3.466797 13.19922,3.466797 2.84445,0 5.91228,-0.532926 9.20117,-1.59961 1.05754,-0.314396 2.10791,-0.691352 3.15625,-1.097656 -3.72468,-0.648016 -7.39981,-1.850746 -10.70507,-3.580078 -3.64526,-1.907219 -6.67058,-4.803419 -9.40235,-7.980469 -0.12565,-0.13869 -0.26174,-0.262917 -0.38281,-0.408203 -0.0874,-0.104921 -0.16153,-0.22729 -0.2461,-0.335938 -0.12169,-0.145631 -0.24656,-0.289047 -0.36718,-0.435546 l 0.0449,-0.0039 c -2.27824,-3.200324 -3.43164,-7.863349 -3.43164,-14.02539 0,-5.155558 0.80039,-9.46497 2.40039,-12.931641 1.68889,-3.466668 3.91046,-6.001562 6.66601,-7.601562 2.84445,-1.68889 6.08993,-2.533204 9.73438,-2.533204 3.82222,0 7.73242,0.666666 11.73242,2 v 36.267579 c -5e-4,2.93e-4 -10e-4,-2.94e-4 -0.002,0 0.002,0.761102 0.0109,3.642567 0.0234,8.679687 0.17018,-0.09662 0.34178,-0.180169 0.51171,-0.279297 l 0.53321,4.265625 h 10.40039 z"
       transform="matrix(0.26458333,0,0,0.26458333,-23.796902,78.480678)" />
    <path
       style="fill:#e6e6e6;fill-opacity:1;fill-rule:nonzero;stroke:none;stroke-width:0.265;stroke-linecap:butt;stroke-linejoin:miter;stroke-miterlimit:4;stroke-dasharray:none;stroke-opacity:1"
       d="m 70.510023,102.28032 c 4.60884,3.50882 10.283627,5.04956 15.631652,5.60843 6.48009,0.71111 12.420864,-0.10182 17.324925,-2.38316 2.87566,-1.36416 5.09922,-3.85841 6.705,-5.595944 1.08855,-1.173351 2.16118,-2.073631 3.24688,-2.756997 3.32326,-2.096838 5.75057,-2.422851 5.75057,-2.422851 0,0 -2.43744,0.133952 -5.96514,2.057098 -1.1605,0.634468 -2.33199,1.49904 -3.52008,2.643656 -1.71051,1.638848 -4.01754,3.971358 -6.67321,5.036658 -4.780676,1.97131 -10.43744,2.47851 -16.656458,1.65878 -5.133048,-0.70448 -10.464956,-2.21503 -14.627027,-5.43269 -7e-5,-5e-5 -1.39e-4,-1.1e-4 -2.09e-4,-1.6e-4 l -1.217136,1.587 c 7.8e-5,6e-5 1.56e-4,1.2e-4 2.33e-4,1.8e-4 z"
       id="path60-1"
       sodipodi:nodetypes="csc"
       inkscape:path-effect="#path-effect1000"
       inkscape:original-d="m 119.16905,94.729798 c -10.2762,2.516907 -9.05721,7.238362 -15.93044,10.256602 -9.915741,4.35429 -24.686488,2.20149 -32.120254,-3.49976" />
    <path
       style="fill:#e6e6e6;fill-opacity:1;fill-rule:nonzero;stroke:none;stroke-width:0.264583px;stroke-linecap:butt;stroke-linejoin:miter;stroke-opacity:1"
       d="m 82.330641,103.12176 c 0.08914,-0.12083 -0.638642,-0.82119 -0.638642,-0.82119 0,0 -0.892708,-0.47197 -0.97081,-0.3661 -4.839892,6.56078 -10.265715,7.57864 -17.481062,7.83633 -7.153401,0.25548 -21.782623,-4.89621 -42.505694,-4.69694 -10.352599,0.0995 -16.94134,0.86563 -21.43893205,2.40181 -3.77837295,1.30044 -6.95899665,3.88597 -9.03419815,7.15229 -1.5035578,2.43993 -1.5565618,5.37708 -0.8630308,7.83269 0.9359785,3.40411 3.340516,6.01281 6.0369709,7.43738 3.5226936,1.83051 7.5119605,1.5347 10.2801215,1.03929 0,0 2.2e-6,0 2.2e-6,0 6.0105604,-1.05043 9.0094104,-3.36611 9.0094104,-3.36611 0,0 -3.187263,2.02578 -9.1068265,2.68683 -8e-7,0 -1.5e-6,0 -2.3e-6,0 -2.7305932,0.29322 -6.57283583,0.3513 -9.5684905,-1.45945 -2.3474612,-1.39322 -4.3761978,-3.81507 -5.0505028,-6.74488 -0.4799239,-2.15974 -0.3981048,-4.63825 0.8288829,-6.41009 1.9073982,-2.87643 4.7799646,-5.14641 8.11410779,-6.27531 4.21712091,-1.44038 10.52681741,-2.19565 20.81171741,-2.29455 20.551929,-0.19761 34.894581,4.96946 42.557847,4.69576 7.442562,-0.2658 13.62143,-1.33083 19.019131,-8.64776 z"
       id="path907-4"
       sodipodi:nodetypes="cssssc"
       inkscape:path-effect="#path-effect1002"
       inkscape:original-d="m 81.691999,102.30057 c -5.15937,7.14375 -11.007847,8.20501 -18.41618,8.46959 -7.408334,0.26459 -21.894271,-4.89479 -42.531771,-4.69635 -20.63749967,0.19844 -25.7968737,3.04271 -29.6994777,9.06198 -2.2845613,3.52364 -1.5372493,10.72922 4.69778,14.21252 5.524424,3.08631 14.6129167,0.83772 18.9824267,-1.7771" />
  </g>
</svg>
