<?xml version="1.0" encoding="UTF-8" standalone="no"?>
<svg
   xmlns:dc="http://purl.org/dc/elements/1.1/"
   xmlns:cc="http://creativecommons.org/ns#"
   xmlns:rdf="http://www.w3.org/1999/02/22-rdf-syntax-ns#"
   xmlns:svg="http://www.w3.org/2000/svg"
   xmlns="http://www.w3.org/2000/svg"
   xmlns:sodipodi="http://sodipodi.sourceforge.net/DTD/sodipodi-0.dtd"
   xmlns:inkscape="http://www.inkscape.org/namespaces/inkscape"
   width="140.98512mm"
   height="31.183035mm"
   viewBox="0 0 140.98512 31.183035"
   version="1.1"
   id="svg8"
   inkscape:version="1.0.2-2 (e86c870879, 2021-01-15)"
   sodipodi:docname="upArrow.svg">
  <defs
     id="defs2">
    <inkscape:path-effect
       effect="taper_stroke"
       id="path-effect892"
       is_visible="true"
       lpeversion="1"
       stroke_width="2.1"
       attach_start="0.8"
       end_offset="0.03"
       smoothing="0.4"
       jointype="extrapolated"
       miter_limit="100" />
    <inkscape:path-effect
       effect="taper_stroke"
       id="path-effect869"
       is_visible="true"
       lpeversion="1"
       stroke_width="2.1"
       attach_start="0.8"
       end_offset="0.03"
       smoothing="0.4"
       jointype="extrapolated"
       miter_limit="100" />
  </defs>
  <sodipodi:namedview
     id="base"
     pagecolor="#ffffff"
     bordercolor="#666666"
     borderopacity="1.0"
     inkscape:pageopacity="0"
     inkscape:pageshadow="2"
     inkscape:zoom="1.979899"
     inkscape:cx="179.28381"
     inkscape:cy="225.89539"
     inkscape:document-units="mm"
     inkscape:current-layer="layer1"
     inkscape:document-rotation="0"
     showgrid="false"
     fit-margin-top="0"
     fit-margin-left="0"
     fit-margin-right="0"
     fit-margin-bottom="0"
     inkscape:window-width="2880"
     inkscape:window-height="1706"
     inkscape:window-x="11509"
     inkscape:window-y="-11"
     inkscape:window-maximized="1" />
  <metadata
     id="metadata5">
    <rdf:RDF>
      <cc:Work
         rdf:about="">
        <dc:format>image/svg+xml</dc:format>
        <dc:type
           rdf:resource="http://purl.org/dc/dcmitype/StillImage" />
        <dc:title></dc:title>
      </cc:Work>
    </rdf:RDF>
  </metadata>
  <g
     inkscape:label="Layer 1"
     inkscape:groupmode="layer"
     id="layer1"
     transform="translate(-26.080357,-36.285714)">
    <path
       style="fill:#6e6e6e;fill-opacity:1;fill-rule:nonzero;stroke:none;stroke-width:0.264583px;stroke-linecap:butt;stroke-linejoin:miter;stroke-opacity:1"
       d="m 89.371982,45.305152 c -2.195328,2.686534 -4.859496,5.240323 -7.994013,7.384382 -3.569089,2.44747 -7.587132,4.311111 -11.824388,5.850143 -10.542478,3.827473 -21.542197,5.767958 -29.773542,7.022796 -8.24607,1.257084 -13.699682,1.906276 -13.699682,1.906276 0,0 5.477637,-0.371788 13.781643,-1.279709 8.290418,-0.906435 19.417225,-2.433227 30.25418,-6.029076 4.373691,-1.450894 8.579767,-3.295144 12.381205,-5.80664 3.347814,-2.217309 6.18622,-4.885753 8.500868,-7.719548 2.025144,-2.478828 3.811687,-5.208744 5.56375,-8.214819 0.379706,-0.651487 0.01091,-2.133243 0.01091,-2.133243 0,0 -1.460199,0.449487 -1.825236,1.07578 -1.718914,2.949199 -3.442674,5.577587 -5.375697,7.943658 z"
       id="path833"
       sodipodi:nodetypes="cc"
       inkscape:path-effect="#path-effect869"
       inkscape:original-d="M 26.080357,67.468749 C 76.729166,61.988094 86.367559,54.428571 96.572915,36.285714" />
    <path
       style="fill:#6e6e6e;fill-opacity:1;fill-rule:nonzero;stroke:none;stroke-width:0.264583px;stroke-linecap:butt;stroke-linejoin:miter;stroke-opacity:1"
       d="m 102.14758,46.633776 c 2.31465,2.833795 5.15305,5.502239 8.50087,7.719548 3.80144,2.511496 8.00751,4.355746 12.3812,5.80664 10.83696,3.595849 21.96377,5.122641 30.25419,6.029076 8.304,0.907921 13.78164,1.279709 13.78164,1.279709 0,0 -5.45361,-0.649192 -13.69968,-1.906276 -8.23135,-1.254838 -19.23107,-3.195323 -29.77355,-7.022796 -4.23725,-1.539032 -8.2553,-3.402673 -11.82439,-5.850143 -3.13451,-2.144059 -5.79868,-4.697848 -7.99401,-7.384382 -1.93303,-2.366071 -3.65679,-4.994459 -5.375699,-7.943658 -0.365037,-0.626293 -1.825236,-1.07578 -1.825236,-1.07578 0,0 -0.368794,1.481756 0.01091,2.133243 1.752063,3.006075 3.538603,5.735991 5.563753,8.214819 z"
       id="path833-3"
       sodipodi:nodetypes="cc"
       inkscape:path-effect="#path-effect892"
       inkscape:original-d="M 167.06548,67.468749 C 116.41667,61.988094 106.77827,54.428571 96.572915,36.285714" />
  </g>
</svg>
